<svg width="510" height="507" viewBox="0 0 510 507" fill="none" xmlns="http://www.w3.org/2000/svg">
<rect width="509.215" height="506.013" transform="translate(0.708008 0.662354)" fill="#008EFF"/>
<path d="M118.214 206.662V195.157L188.782 89.8158H117.447V75.7533H207.702V87.2589L137.134 192.6H208.469V206.662H118.214ZM382.562 141.208C382.562 155.015 380.07 166.946 375.084 177.003C370.098 187.06 363.259 194.816 354.565 200.27C345.872 205.725 335.943 208.452 324.778 208.452C313.614 208.452 303.685 205.725 294.991 200.27C286.298 194.816 279.459 187.06 274.473 177.003C269.487 166.946 266.994 155.015 266.994 141.208C266.994 127.401 269.487 115.469 274.473 105.412C279.459 95.3555 286.298 87.5999 294.991 82.1453C303.685 76.6908 313.614 73.9635 324.778 73.9635C335.943 73.9635 345.872 76.6908 354.565 82.1453C363.259 87.5999 370.098 95.3555 375.084 105.412C380.07 115.469 382.562 127.401 382.562 141.208ZM367.222 141.208C367.222 129.873 365.325 120.306 361.533 112.508C357.783 104.709 352.69 98.8072 346.256 94.8016C339.864 90.7959 332.705 88.793 324.778 88.793C316.852 88.793 309.672 90.7959 303.237 94.8016C296.845 98.8072 291.753 104.709 287.96 112.508C284.21 120.306 282.335 129.873 282.335 141.208C282.335 152.543 284.21 162.11 287.96 169.908C291.753 177.706 296.845 183.608 303.237 187.614C309.672 191.62 316.852 193.623 324.778 193.623C332.705 193.623 339.864 191.62 346.256 187.614C352.69 183.608 357.783 177.706 361.533 169.908C365.325 162.11 367.222 152.543 367.222 141.208ZM122.56 424.662V293.753H166.793C177.021 293.753 185.415 295.5 191.978 298.995C198.54 302.446 203.398 307.198 206.552 313.249C209.705 319.3 211.282 326.182 211.282 333.895C211.282 341.608 209.705 348.448 206.552 354.414C203.398 360.38 198.562 365.067 192.042 368.476C185.522 371.843 177.191 373.526 167.049 373.526H131.253V359.208H166.538C173.526 359.208 179.151 358.185 183.413 356.14C187.717 354.094 190.827 351.196 192.745 347.446C194.705 343.654 195.685 339.137 195.685 333.895C195.685 328.654 194.705 324.073 192.745 320.152C190.785 316.232 187.653 313.206 183.349 311.076C179.045 308.902 173.356 307.816 166.282 307.816H138.413V424.662H122.56ZM184.18 365.856L216.396 424.662H197.986L166.282 365.856H184.18ZM286.266 424.662H269.647L317.715 293.753H334.079L382.147 424.662H365.528L326.408 314.463H325.386L286.266 424.662ZM292.403 373.526H359.391V387.588H292.403V373.526Z" fill="#FFFEFC"/>
</svg>
