<svg width="510" height="507" viewBox="0 0 510 507" fill="none" xmlns="http://www.w3.org/2000/svg">
<path d="M117.506 206V194.494L188.074 89.1534H116.739V75.0909H206.994V86.5966L136.426 191.938H207.761V206H117.506ZM381.854 140.545C381.854 154.352 379.362 166.284 374.376 176.341C369.39 186.398 362.551 194.153 353.857 199.608C345.164 205.062 335.235 207.79 324.07 207.79C312.906 207.79 302.977 205.062 294.283 199.608C285.59 194.153 278.751 186.398 273.765 176.341C268.779 166.284 266.286 154.352 266.286 140.545C266.286 126.739 268.779 114.807 273.765 104.75C278.751 94.6932 285.59 86.9375 294.283 81.483C302.977 76.0284 312.906 73.3011 324.07 73.3011C335.235 73.3011 345.164 76.0284 353.857 81.483C362.551 86.9375 369.39 94.6932 374.376 104.75C379.362 114.807 381.854 126.739 381.854 140.545ZM366.514 140.545C366.514 129.21 364.617 119.643 360.825 111.845C357.075 104.047 351.982 98.1449 345.548 94.1392C339.156 90.1335 331.997 88.1307 324.07 88.1307C316.144 88.1307 308.964 90.1335 302.529 94.1392C296.137 98.1449 291.045 104.047 287.252 111.845C283.502 119.643 281.627 129.21 281.627 140.545C281.627 151.881 283.502 161.447 287.252 169.246C291.045 177.044 296.137 182.946 302.529 186.952C308.964 190.957 316.144 192.96 324.07 192.96C331.997 192.96 339.156 190.957 345.548 186.952C351.982 182.946 357.075 177.044 360.825 169.246C364.617 161.447 366.514 151.881 366.514 140.545ZM121.852 424V293.091H166.085C176.313 293.091 184.707 294.838 191.27 298.332C197.832 301.784 202.69 306.536 205.844 312.587C208.997 318.638 210.574 325.52 210.574 333.233C210.574 340.946 208.997 347.786 205.844 353.751C202.69 359.717 197.854 364.405 191.334 367.814C184.814 371.18 176.483 372.864 166.341 372.864H130.545V358.545H165.83C172.818 358.545 178.443 357.523 182.705 355.477C187.009 353.432 190.119 350.534 192.037 346.784C193.997 342.991 194.977 338.474 194.977 333.233C194.977 327.991 193.997 323.411 192.037 319.49C190.077 315.57 186.945 312.544 182.641 310.413C178.337 308.24 172.648 307.153 165.574 307.153H137.705V424H121.852ZM183.472 365.193L215.688 424H197.278L165.574 365.193H183.472ZM285.558 424H268.939L317.007 293.091H333.371L381.439 424H364.82L325.7 313.801H324.678L285.558 424ZM291.695 372.864H358.683V386.926H291.695V372.864Z" fill="#008EFF"/>
</svg>
