<svg width="510" height="507" viewBox="0 0 510 507" fill="none" xmlns="http://www.w3.org/2000/svg">
<rect width="509.215" height="506.013" transform="translate(0.708008)" fill="#FFFEFC"/>
<path d="M118.214 206V194.494L188.782 89.1534H117.447V75.0909H207.702V86.5966L137.134 191.938H208.469V206H118.214ZM382.562 140.545C382.562 154.352 380.07 166.284 375.084 176.341C370.098 186.398 363.259 194.153 354.565 199.608C345.872 205.062 335.943 207.79 324.778 207.79C313.614 207.79 303.685 205.062 294.991 199.608C286.298 194.153 279.459 186.398 274.473 176.341C269.487 166.284 266.994 154.352 266.994 140.545C266.994 126.739 269.487 114.807 274.473 104.75C279.459 94.6932 286.298 86.9375 294.991 81.483C303.685 76.0284 313.614 73.3011 324.778 73.3011C335.943 73.3011 345.872 76.0284 354.565 81.483C363.259 86.9375 370.098 94.6932 375.084 104.75C380.07 114.807 382.562 126.739 382.562 140.545ZM367.222 140.545C367.222 129.21 365.325 119.643 361.533 111.845C357.783 104.047 352.69 98.1449 346.256 94.1392C339.864 90.1335 332.705 88.1307 324.778 88.1307C316.852 88.1307 309.672 90.1335 303.237 94.1392C296.845 98.1449 291.753 104.047 287.96 111.845C284.21 119.643 282.335 129.21 282.335 140.545C282.335 151.881 284.21 161.447 287.96 169.246C291.753 177.044 296.845 182.946 303.237 186.952C309.672 190.957 316.852 192.96 324.778 192.96C332.705 192.96 339.864 190.957 346.256 186.952C352.69 182.946 357.783 177.044 361.533 169.246C365.325 161.447 367.222 151.881 367.222 140.545ZM122.56 424V293.091H166.793C177.021 293.091 185.415 294.838 191.978 298.332C198.54 301.784 203.398 306.536 206.552 312.587C209.705 318.638 211.282 325.52 211.282 333.233C211.282 340.946 209.705 347.786 206.552 353.751C203.398 359.717 198.562 364.405 192.042 367.814C185.522 371.18 177.191 372.864 167.049 372.864H131.253V358.545H166.538C173.526 358.545 179.151 357.523 183.413 355.477C187.717 353.432 190.827 350.534 192.745 346.784C194.705 342.991 195.685 338.474 195.685 333.233C195.685 327.991 194.705 323.411 192.745 319.49C190.785 315.57 187.653 312.544 183.349 310.413C179.045 308.24 173.356 307.153 166.282 307.153H138.413V424H122.56ZM184.18 365.193L216.396 424H197.986L166.282 365.193H184.18ZM286.266 424H269.647L317.715 293.091H334.079L382.147 424H365.528L326.408 313.801H325.386L286.266 424ZM292.403 372.864H359.391V386.926H292.403V372.864Z" fill="#008EFF"/>
</svg>
