<svg width="510" height="507" viewBox="0 0 510 507" fill="none" xmlns="http://www.w3.org/2000/svg">
<rect width="509.215" height="506.013" transform="translate(0.708008 0.987061)" fill="#111111"/>
<path d="M118.214 206.987V195.481L188.782 90.1405H117.447V76.078H207.702V87.5836L137.134 192.925H208.469V206.987H118.214ZM382.562 141.533C382.562 155.339 380.07 167.271 375.084 177.328C370.098 187.385 363.259 195.14 354.565 200.595C345.872 206.05 335.943 208.777 324.778 208.777C313.614 208.777 303.685 206.05 294.991 200.595C286.298 195.14 279.459 187.385 274.473 177.328C269.487 167.271 266.994 155.339 266.994 141.533C266.994 127.726 269.487 115.794 274.473 105.737C279.459 95.6802 286.298 87.9246 294.991 82.47C303.685 77.0155 313.614 74.2882 324.778 74.2882C335.943 74.2882 345.872 77.0155 354.565 82.47C363.259 87.9246 370.098 95.6802 375.084 105.737C380.07 115.794 382.562 127.726 382.562 141.533ZM367.222 141.533C367.222 130.197 365.325 120.631 361.533 112.832C357.783 105.034 352.69 99.1319 346.256 95.1263C339.864 91.1206 332.705 89.1177 324.778 89.1177C316.852 89.1177 309.672 91.1206 303.237 95.1263C296.845 99.1319 291.753 105.034 287.96 112.832C284.21 120.631 282.335 130.197 282.335 141.533C282.335 152.868 284.21 162.435 287.96 170.233C291.753 178.031 296.845 183.933 303.237 187.939C309.672 191.944 316.852 193.947 324.778 193.947C332.705 193.947 339.864 191.944 346.256 187.939C352.69 183.933 357.783 178.031 361.533 170.233C365.325 162.435 367.222 152.868 367.222 141.533ZM122.56 424.987V294.078H166.793C177.021 294.078 185.415 295.825 191.978 299.319C198.54 302.771 203.398 307.523 206.552 313.574C209.705 319.625 211.282 326.507 211.282 334.22C211.282 341.933 209.705 348.773 206.552 354.738C203.398 360.704 198.562 365.392 192.042 368.801C185.522 372.167 177.191 373.851 167.049 373.851H131.253V359.533H166.538C173.526 359.533 179.151 358.51 183.413 356.464C187.717 354.419 190.827 351.521 192.745 347.771C194.705 343.979 195.685 339.461 195.685 334.22C195.685 328.979 194.705 324.398 192.745 320.477C190.785 316.557 187.653 313.531 183.349 311.4C179.045 309.227 173.356 308.14 166.282 308.14H138.413V424.987H122.56ZM184.18 366.18L216.396 424.987H197.986L166.282 366.18H184.18ZM286.266 424.987H269.647L317.715 294.078H334.079L382.147 424.987H365.528L326.408 314.788H325.386L286.266 424.987ZM292.403 373.851H359.391V387.913H292.403V373.851Z" fill="#FFFEFC"/>
</svg>
