<svg width="510" height="507" viewBox="0 0 510 507" fill="none" xmlns="http://www.w3.org/2000/svg">
<rect width="509.215" height="506.013" transform="translate(0.708008 0.324707)" fill="#FFFEFC"/>
<path d="M118.214 206.325V194.819L188.782 89.4781H117.447V75.4156H207.702V86.9213L137.134 192.262H208.469V206.325H118.214ZM382.562 140.87C382.562 154.677 380.07 166.609 375.084 176.666C370.098 186.722 363.259 194.478 354.565 199.933C345.872 205.387 335.943 208.114 324.778 208.114C313.614 208.114 303.685 205.387 294.991 199.933C286.298 194.478 279.459 186.722 274.473 176.666C269.487 166.609 266.994 154.677 266.994 140.87C266.994 127.063 269.487 115.132 274.473 105.075C279.459 95.0179 286.298 87.2622 294.991 81.8077C303.685 76.3531 313.614 73.6258 324.778 73.6258C335.943 73.6258 345.872 76.3531 354.565 81.8077C363.259 87.2622 370.098 95.0179 375.084 105.075C380.07 115.132 382.562 127.063 382.562 140.87ZM367.222 140.87C367.222 129.535 365.325 119.968 361.533 112.17C357.783 104.372 352.69 98.4696 346.256 94.4639C339.864 90.4582 332.705 88.4554 324.778 88.4554C316.852 88.4554 309.672 90.4582 303.237 94.4639C296.845 98.4696 291.753 104.372 287.96 112.17C284.21 119.968 282.335 129.535 282.335 140.87C282.335 152.205 284.21 161.772 287.96 169.57C291.753 177.369 296.845 183.271 303.237 187.276C309.672 191.282 316.852 193.285 324.778 193.285C332.705 193.285 339.864 191.282 346.256 187.276C352.69 183.271 357.783 177.369 361.533 169.57C365.325 161.772 367.222 152.205 367.222 140.87ZM122.56 424.325V293.416H166.793C177.021 293.416 185.415 295.163 191.978 298.657C198.54 302.109 203.398 306.86 206.552 312.911C209.705 318.962 211.282 325.845 211.282 333.558C211.282 341.271 209.705 348.11 206.552 354.076C203.398 360.042 198.562 364.73 192.042 368.139C185.522 371.505 177.191 373.188 167.049 373.188H131.253V358.87H166.538C173.526 358.87 179.151 357.847 183.413 355.802C187.717 353.757 190.827 350.859 192.745 347.109C194.705 343.316 195.685 338.799 195.685 333.558C195.685 328.316 194.705 323.735 192.745 319.815C190.785 315.894 187.653 312.869 183.349 310.738C179.045 308.565 173.356 307.478 166.282 307.478H138.413V424.325H122.56ZM184.18 365.518L216.396 424.325H197.986L166.282 365.518H184.18ZM286.266 424.325H269.647L317.715 293.416H334.079L382.147 424.325H365.528L326.408 314.126H325.386L286.266 424.325ZM292.403 373.188H359.391V387.251H292.403V373.188Z" fill="#111111"/>
</svg>
