<svg width="100" height="100" viewBox="0 0 100 100" fill="none" xmlns="http://www.w3.org/2000/svg">
<rect width="100" height="100" fill="#F97316"/>
<path d="M26.6619 43V40.2621L37.5497 24.9851H26.6406V21.1818H43.3452V23.9197L32.4467 39.1967H43.3665V43H26.6619ZM73.1304 32.0909C73.1304 34.4702 72.6794 36.4943 71.7774 38.1634C70.8825 39.8324 69.6609 41.1072 68.1126 41.9879C66.5715 42.8615 64.8385 43.2983 62.9138 43.2983C60.9749 43.2983 59.2348 42.858 57.6936 41.9773C56.1524 41.0966 54.9344 39.8217 54.0395 38.1527C53.1446 36.4837 52.6972 34.4631 52.6972 32.0909C52.6972 29.7116 53.1446 27.6875 54.0395 26.0185C54.9344 24.3494 56.1524 23.0781 57.6936 22.2045C59.2348 21.3239 60.9749 20.8835 62.9138 20.8835C64.8385 20.8835 66.5715 21.3239 68.1126 22.2045C69.6609 23.0781 70.8825 24.3494 71.7774 26.0185C72.6794 27.6875 73.1304 29.7116 73.1304 32.0909ZM68.4536 32.0909C68.4536 30.5497 68.2227 29.25 67.7611 28.1918C67.3065 27.1335 66.6638 26.331 65.8328 25.7841C65.0018 25.2372 64.0288 24.9638 62.9138 24.9638C61.7987 24.9638 60.8257 25.2372 59.9947 25.7841C59.1638 26.331 58.5175 27.1335 58.0558 28.1918C57.6013 29.25 57.374 30.5497 57.374 32.0909C57.374 33.6321 57.6013 34.9318 58.0558 35.9901C58.5175 37.0483 59.1638 37.8509 59.9947 38.3977C60.8257 38.9446 61.7987 39.218 62.9138 39.218C64.0288 39.218 65.0018 38.9446 65.8328 38.3977C66.6638 37.8509 67.3065 37.0483 67.7611 35.9901C68.2227 34.9318 68.4536 33.6321 68.4536 32.0909ZM26.8963 79V57.1818H35.5043C37.152 57.1818 38.5582 57.4766 39.723 58.0661C40.8949 58.6484 41.7862 59.4759 42.397 60.5483C43.0149 61.6136 43.3239 62.8672 43.3239 64.3089C43.3239 65.7578 43.0114 67.0043 42.3864 68.0483C41.7614 69.0852 40.8558 69.8807 39.6697 70.4347C38.4908 70.9886 37.0632 71.2656 35.3871 71.2656H29.6236V67.5582H34.6413C35.522 67.5582 36.2536 67.4375 36.8359 67.196C37.4183 66.9545 37.8516 66.5923 38.1357 66.1094C38.4268 65.6264 38.5724 65.0263 38.5724 64.3089C38.5724 63.5845 38.4268 62.9737 38.1357 62.4766C37.8516 61.9794 37.4148 61.603 36.8253 61.3473C36.2429 61.0845 35.5078 60.9531 34.62 60.9531H31.5092V79H26.8963ZM38.679 69.071L44.1016 79H39.0092L33.7038 69.071H38.679ZM57.5445 79H52.6013L60.1332 57.1818H66.0778L73.5991 79H68.656L63.1908 62.1676H63.0203L57.5445 79ZM57.2355 70.424H68.9116V74.0249H57.2355V70.424Z" fill="white"/>
</svg>
