<svg width="100" height="100" viewBox="0 0 100 100" fill="none" xmlns="http://www.w3.org/2000/svg">
<rect width="100" height="100" fill="#F0F2F5"/>
<path d="M26.44 41V38.888L37.608 20.936H26.6V18.6H40.744V20.712L29.544 38.664H40.872V41H26.44ZM61.7515 41.384C59.5968 41.384 57.6982 40.904 56.0555 39.944C54.4342 38.9627 53.1648 37.608 52.2475 35.88C51.3515 34.1307 50.9035 32.104 50.9035 29.8C50.9035 27.5173 51.3515 25.512 52.2475 23.784C53.1648 22.0347 54.4342 20.6693 56.0555 19.688C57.6982 18.7067 59.5968 18.216 61.7515 18.216C63.9488 18.216 65.8582 18.7067 67.4795 19.688C69.1008 20.6693 70.3595 22.0347 71.2555 23.784C72.1728 25.512 72.6315 27.5173 72.6315 29.8C72.6315 32.104 72.1728 34.1307 71.2555 35.88C70.3595 37.608 69.1008 38.9627 67.4795 39.944C65.8582 40.904 63.9488 41.384 61.7515 41.384ZM61.7515 39.016C63.3728 39.016 64.7915 38.6533 66.0075 37.928C67.2448 37.1813 68.1942 36.1253 68.8555 34.76C69.5382 33.3733 69.8795 31.72 69.8795 29.8C69.8795 27.88 69.5382 26.2373 68.8555 24.872C68.1942 23.4853 67.2448 22.4293 66.0075 21.704C64.7915 20.9787 63.3728 20.616 61.7515 20.616C60.1515 20.616 58.7328 20.9787 57.4955 21.704C56.2795 22.4293 55.3302 23.4853 54.6475 24.872C53.9862 26.2373 53.6555 27.88 53.6555 29.8C53.6555 31.72 53.9862 33.3733 54.6475 34.76C55.3302 36.1253 56.2795 37.1813 57.4955 37.928C58.7328 38.6533 60.1515 39.016 61.7515 39.016ZM27.4 83V60.6H34.632C36.3813 60.6 37.8107 60.8987 38.92 61.496C40.0293 62.072 40.8507 62.8507 41.384 63.832C41.9173 64.8133 42.184 65.9227 42.184 67.16C42.184 68.3547 41.9067 69.4533 41.352 70.456C40.8187 71.4587 39.9867 72.2587 38.856 72.856C37.7253 73.4533 36.2747 73.752 34.504 73.752H30.088V83H27.4ZM39.24 83L34.312 72.984H37.32L42.408 83H39.24ZM30.088 71.64H34.44C36.1467 71.64 37.3947 71.224 38.184 70.392C38.9947 69.56 39.4 68.4933 39.4 67.192C39.4 65.8693 39.0053 64.824 38.216 64.056C37.448 63.2667 36.1787 62.872 34.408 62.872H30.088V71.64ZM52.64 83L60.896 60.6H63.744L71.968 83H69.12L62.304 63.96L55.456 83H52.64ZM56.416 77.24L57.184 75.064H67.328L68.096 77.24H56.416Z" fill="#072AC8"/>
</svg>
